<?xml version="1.0" encoding="UTF-8"?>
<svg width="512" height="256" data-name="Warstwa 1" version="1.1" viewBox="0 0 512 256" xmlns="http://www.w3.org/2000/svg" xmlns:cc="http://creativecommons.org/ns#" xmlns:dc="http://purl.org/dc/elements/1.1/" xmlns:rdf="http://www.w3.org/1999/02/22-rdf-syntax-ns#">
 <metadata>
  <rdf:RDF>
   <cc:Work rdf:about="">
    <dc:format>image/svg+xml</dc:format>
    <dc:type rdf:resource="http://purl.org/dc/dcmitype/StillImage"/>
    <dc:title/>
   </cc:Work>
  </rdf:RDF>
 </metadata>
 <defs>
  <style>.cls-1{fill:#1770c9;}.cls-2{fill:#005eb2;}.cls-3{fill:#ff8000;}</style>
 </defs>
 <polygon class="cls-1" transform="scale(.90311)" points="142.28 97.31 119.08 131.06 128.35 131.06 128.35 216.62 164.63 216.62 164.63 131.06 181.67 131.06 181.67 216.62 217.95 216.62 217.95 173.84 236.39 173.84 236.39 216.62 272.67 216.62 272.67 97.31 236.39 97.31 236.39 139.41 217.95 139.41 217.95 97.31"/>
 <polygon class="cls-2" transform="scale(.90311)" points="54.49 139.23 92.13 123.84 150.94 66.85 75.39 176.85 60.33 166.41 65.09 159.67"/>
 <polygon class="cls-3" transform="scale(.90311)" points="68.03 174.13 63.23 170.85 43.26 205.76 67.52 175.61 59.56 198.96 78.45 182.88 59.15 216.62 84.36 185.28 79.51 181.97 79.12 181.7 68.47 174.43"/>
 <g stroke-width=".90311">
  <path class="cls-2" d="m262.06 134.92 1.3727-1.8604a5.0213 5.0213 0 0 0 3.6124 1.4179c1.3547 0 2.3932-0.47865 2.3932-1.3276s-1.1831-1.2463-2.6009-1.5804c-1.9417-0.45156-4.3711-1.0657-4.3711-3.7118 0-2.4836 2.1946-3.7118 4.7955-3.7118a7.1255 7.1255 0 0 1 4.5878 1.6075l-1.3998 1.8694a4.7323 4.7323 0 0 0-3.1338-1.1921c-1.1831 0-2.1494 0.4064-2.1494 1.2282s1.156 1.2282 2.619 1.5624c1.9417 0.42446 4.353 1.0386 4.353 3.6576 0 2.619-2.2216 3.8834-5.0303 3.8834a7.4055 7.4055 0 0 1-5.0122-1.8062"/>
  <path class="cls-2" d="m273.64 130.46a6.2405 6.2405 0 0 1 6.4482-6.3217 6.3218 6.3218 0 0 1 5.527 3.0073l-2.2939 1.3908a3.7569 3.7569 0 1 0 0 3.8292l2.2939 1.3908a6.3218 6.3218 0 0 1-5.527 3.0074 6.2405 6.2405 0 0 1-6.4482-6.3218"/>
  <path class="cls-2" d="m294.58 124.25v2.7093h-0.45156a3.4318 3.4318 0 0 0-3.7569 3.6124v5.8612h-2.6461v-11.993h2.6461v1.8062a4.5155 4.5155 0 0 1 3.7569-1.9597z"/>
  <path class="cls-2" d="m305.62 130.46a3.7208 3.7208 0 1 0-3.7118 3.7569 3.6124 3.6124 0 0 0 3.7118-3.7569m2.6461-6.0237v12.047h-2.6461v-1.7249a5.2561 5.2561 0 0 1-4.2356 2.0139c-3.3957 0-5.9244-2.7093-5.9244-6.3218 0-3.6124 2.5287-6.3218 5.9244-6.3218a5.2561 5.2561 0 0 1 4.2356 2.0139v-1.7249z"/>
  <path class="cls-2" d="m330.41 128.67v7.8209h-2.6461v-7.0442a2.5377 2.5377 0 0 0-2.7093-2.7093 2.7093 2.7093 0 0 0-2.8538 2.7906v6.99h-2.6551v-7.0442a2.5287 2.5287 0 0 0-2.6642-2.7093 2.7093 2.7093 0 0 0-2.8628 2.7906v6.99h-2.6461v-12.102h2.6461v1.4179a4.6239 4.6239 0 0 1 3.7389-1.7069 4.2265 4.2265 0 0 1 3.8743 2.1313 4.9129 4.9129 0 0 1 4.2266-2.1313 4.2446 4.2446 0 0 1 4.5156 4.5155"/>
  <path class="cls-2" d="m341.37 129.35h7.0172a3.6124 3.6124 0 0 0-7.0172 0m9.7897 2.1765h-9.7897a3.784 3.784 0 0 0 3.8743 2.8538 4.5878 4.5878 0 0 0 3.6124-1.6527l1.8062 1.5353a6.963 6.963 0 0 1-5.4819 2.5106 6.3218 6.3218 0 0 1-6.6649-6.3218 6.349 6.349 0 0 1 12.698 0.0723 8.128 8.128 0 0 1-0.0722 1.0386"/>
  <rect class="cls-2" x="333.51" y="124.44" width="2.6461" height="20.347"/>
 </g>
 <polygon class="cls-2" transform="scale(.90311)" points="397.38 137.79 395.07 137.79 395.07 132.87 392.14 132.87 392.14 137.79 389.89 137.79 389.89 140.46 392.14 140.46 392.14 151.13 395.07 151.13 395.07 140.46 397.38 140.46"/>
 <g stroke-width=".90311">
  <rect class="cls-2" x="333.51" y="120" width="2.6461" height="2.6461"/>
  <path class="cls-3" d="m294.33 147.88v15.208h-4.362v-15.208h-4.073v-3.6847h12.571v3.6847z"/>
  <path class="cls-3" d="m299.12 150.46h4.082v1.9868a4.5155 4.5155 0 0 1 1.5804-1.8062 3.9285 3.9285 0 0 1 2.1855-0.53284 4.2536 4.2536 0 0 1 1.3276 0.18965l-0.22577 3.8292a3.8653 3.8653 0 0 0-1.8062-0.45156 2.628 2.628 0 0 0-2.032 0.84893 4.7594 4.7594 0 0 0-0.99342 3.3957v5.1296h-4.082z"/>
  <path class="cls-3" d="m319.26 150.46h4.055v12.644h-4.073v-1.5353a4.2175 4.2175 0 0 1-3.7389 1.9598 5.9966 5.9966 0 0 1-4.7323-1.9326 6.6649 6.6649 0 0 1-1.8062-4.7233 7.2249 7.2249 0 0 1 1.9507-5.1026 6.0869 6.0869 0 0 1 4.3891-1.7249 4.7323 4.7323 0 0 1 3.9647 1.8062zm-5.1838 3.9737a3.1609 3.1609 0 0 0-0.90311 2.2939 3.2422 3.2422 0 0 0 0.84892 2.2668 3.3325 3.3325 0 0 0 2.4023 0.99342 3.0254 3.0254 0 0 0 2.1223-0.90311 3.3596 3.3596 0 0 0 0.0632-4.7052 3.4137 3.4137 0 0 0-2.2668-0.90311 3.2512 3.2512 0 0 0-2.2668 0.9573z"/>
  <path class="cls-3" d="m326.51 150.46h4.073v1.4992a4.6329 4.6329 0 0 1 3.9105-1.8062 4.4614 4.4614 0 0 1 4.9039 4.9852v7.9925h-4.082v-6.4843a3.5312 3.5312 0 0 0-0.67734-2.5287 2.1675 2.1675 0 0 0-1.5624-0.55993 2.2126 2.2126 0 0 0-1.6978 0.67733 3.2512 3.2512 0 0 0-0.79473 2.4113v6.4843h-4.073z"/>
  <path class="cls-3" d="m349.98 153.69a4.5155 4.5155 0 0 0-2.2307-0.71346 1.752 1.752 0 0 0-1.165 0.37027 0.90311 0.90311 0 0 0-0.25287 0.56896 0.65024 0.65024 0 0 0 0.39736 0.55993 6.394 6.394 0 0 0 1.2192 0.42446l1.0747 0.34318a5.3464 5.3464 0 0 1 2.0952 1.1018 3.0435 3.0435 0 0 1 0.99342 2.4113 4.5878 4.5878 0 0 1-1.3095 3.3144 5.4186 5.4186 0 0 1-4.1001 1.445 7.5139 7.5139 0 0 1-5.1838-1.8062l1.7249-2.7093a7.3332 7.3332 0 0 0 1.3908 0.90311 3.7298 3.7298 0 0 0 1.6978 0.39737 2.3029 2.3029 0 0 0 1.2734-0.27996 1.0928 1.0928 0 0 0 0.42446-0.82183 0.83086 0.83086 0 0 0-0.45155-0.74055 5.7528 5.7528 0 0 0-1.2463-0.45156l-1.0205-0.30706a5.0664 5.0664 0 0 1-2.041-1.165 3.1067 3.1067 0 0 1-0.90311-2.2939 3.8924 3.8924 0 0 1 1.2192-2.917 5.5631 5.5631 0 0 1 3.8202-1.2734 7.9564 7.9564 0 0 1 4.1904 1.0747z"/>
  <path class="cls-3" d="m358.97 153.75v9.3472h-4.0459v-9.3472h-1.4721v-3.2873h1.4721v-2.4926a5.9876 5.9876 0 0 1 1.4179-4.3891 4.651 4.651 0 0 1 3.5402-1.445 6.4482 6.4482 0 0 1 2.321 0.42446v3.6124a3.1609 3.1609 0 0 0-1.5534-0.47865 1.4811 1.4811 0 0 0-1.1921 0.50575 3.8292 3.8292 0 0 0-0.45155 2.1855v2.1223h3.2241v3.2873z"/>
  <path class="cls-3" d="m376.1 161.48a8.4892 8.4892 0 0 1-11.045 0 6.7733 6.7733 0 0 1 0-9.4014 8.4892 8.4892 0 0 1 11.045 0 6.7733 6.7733 0 0 1 0 9.4014zm-7.8209-7.0442a3.5131 3.5131 0 0 0 0 4.7594 3.1699 3.1699 0 0 0 2.33 0.90311 3.0615 3.0615 0 0 0 2.2578-0.90311 3.486 3.486 0 0 0 0-4.7594 3.3686 3.3686 0 0 0-4.5878 0z"/>
  <path class="cls-3" d="m380.54 150.46h4.082v1.9868a4.5155 4.5155 0 0 1 1.5895-1.8062 3.8834 3.8834 0 0 1 2.1765-0.53284 4.2536 4.2536 0 0 1 1.3276 0.18965l-0.22578 3.8292a3.8653 3.8653 0 0 0-1.8062-0.45156 2.628 2.628 0 0 0-2.032 0.84893 4.7594 4.7594 0 0 0-0.99342 3.3957v5.1296h-4.082z"/>
  <path class="cls-3" d="m391.43 150.46h4.073v1.4721a3.9737 3.9737 0 0 1 3.5402-1.8062 4.7594 4.7594 0 0 1 2.3842 0.55993 3.766 3.766 0 0 1 1.5263 1.8062 4.8407 4.8407 0 0 1 4.2988-2.321 4.3801 4.3801 0 0 1 4.8497 4.949v7.9925h-4.082v-6.4211a4.2085 4.2085 0 0 0-0.53283-2.4655 1.8875 1.8875 0 0 0-1.4721-0.67733 1.9417 1.9417 0 0 0-1.5895 0.76764 4.0188 4.0188 0 0 0-0.62314 2.4835v6.3218h-4.082v-6.5746a3.4047 3.4047 0 0 0-0.65024-2.4655 1.8062 1.8062 0 0 0-1.3547-0.50574 2.0139 2.0139 0 0 0-1.4179 0.50574 3.8472 3.8472 0 0 0-0.79474 2.5829v6.4572h-4.073z"/>
  <path class="cls-3" d="m426.74 151.4h7.5319v-7.2249h4.362v18.893h-4.362v-8.0196h-7.5319v8.0196h-4.362v-18.866h4.362z"/>
  <path class="cls-3" d="m446.36 150.46v6.963a2.7093 2.7093 0 0 0 0.71346 2.041 2.4113 2.4113 0 0 0 1.6978 0.59605 2.4835 2.4835 0 0 0 1.7249-0.59605 2.7093 2.7093 0 0 0 0.68637-2.041v-6.963h4.073v7.3603a5.0845 5.0845 0 0 1-1.4179 4.055c-1.445 1.4179-3.5673 1.6437-5.0664 1.6437-1.4992 0-3.6124-0.22578-5.0935-1.6437a4.8316 4.8316 0 0 1-1.3908-3.793v-7.6222z"/>
  <path class="cls-3" d="m462.63 142.45v9.4284a4.6962 4.6962 0 0 1 3.9285-1.8062 6.3218 6.3218 0 0 1 4.3891 1.6978 6.7552 6.7552 0 0 1 1.9868 4.9852 7.0533 7.0533 0 0 1-1.9868 5.0664 5.6354 5.6354 0 0 1-4.3259 1.734 4.5155 4.5155 0 0 1-3.9917-1.9597v1.5353h-4.0821v-20.681zm0.65024 12.029a3.2422 3.2422 0 0 0-0.90311 2.321 3.0706 3.0706 0 0 0 0.90311 2.2668 3.477 3.477 0 0 0 2.321 0.90311 3.1609 3.1609 0 0 0 2.1223-0.90311 3.2151 3.2151 0 0 0 0.99341-2.33 3.2602 3.2602 0 0 0-0.99341-2.4023 2.9532 2.9532 0 0 0-2.1765-0.84892 2.9983 2.9983 0 0 0-2.2487 0.99342z"/>
 </g>
</svg>
